# This file uses centimeters as units for non-parametric coordinates.

mtllib 333.mtl
g default
v -4.527262 -1.343011 1.343011
v -1.841240 -1.343011 1.343011
v -4.527262 1.343011 1.343011
v -1.841240 1.343011 1.343011
v -4.527262 1.343011 -1.343011
v -1.841240 1.343011 -1.343011
v -4.527262 -1.343011 -1.343011
v -1.841240 -1.343011 -1.343011
vt -21.473396 -91.496246
vt 24.524727 -91.496246
vt -21.473396 -45.498123
vt 24.524727 -45.498123
vt -21.473396 0.500000
vt 24.524727 0.500000
vt -21.473396 46.498123
vt 24.524727 46.498123
vt -21.473396 92.496246
vt 24.524727 92.496246
vt 70.522842 -91.496246
vt 70.522842 -45.498123
vt -67.471527 -91.496246
vt -67.471527 -45.498123
vn 0.000000 0.000000 1.000000
vn 0.000000 0.000000 1.000000
vn 0.000000 0.000000 1.000000
vn 0.000000 0.000000 1.000000
vn 0.000000 1.000000 0.000000
vn 0.000000 1.000000 0.000000
vn 0.000000 1.000000 0.000000
vn 0.000000 1.000000 0.000000
vn 0.000000 0.000000 -1.000000
vn 0.000000 0.000000 -1.000000
vn 0.000000 0.000000 -1.000000
vn 0.000000 0.000000 -1.000000
vn 0.000000 -1.000000 0.000000
vn 0.000000 -1.000000 0.000000
vn 0.000000 -1.000000 0.000000
vn 0.000000 -1.000000 0.000000
vn 1.000000 0.000000 0.000000
vn 1.000000 0.000000 0.000000
vn 1.000000 0.000000 0.000000
vn 1.000000 0.000000 0.000000
vn -1.000000 0.000000 0.000000
vn -1.000000 0.000000 0.000000
vn -1.000000 0.000000 0.000000
vn -1.000000 0.000000 0.000000
s off
g pCube1
usemtl lambert2SG
f 1/1/1 2/2/2 4/4/3 3/3/4
f 3/3/5 4/4/6 6/6/7 5/5/8
f 5/5/9 6/6/10 8/8/11 7/7/12
f 7/7/13 8/8/14 2/10/15 1/9/16
f 2/2/17 8/11/18 6/12/19 4/4/20
f 7/13/21 1/1/22 3/3/23 5/14/24
